<?xml version="1.0" encoding="UTF-8" standalone="no"?>
<!DOCTYPE svg PUBLIC "-//W3C//DTD SVG 1.1//EN"
 "http://www.w3.org/Graphics/SVG/1.1/DTD/svg11.dtd">
<!-- Generated by graphviz version 2.38.0 (20140413.2041)
 -->
<!-- Title: echo order demo Pages: 1 -->
<svg width="116pt" height="188pt"
 viewBox="0.00 0.00 115.89 188.00" xmlns="http://www.w3.org/2000/svg" xmlns:xlink="http://www.w3.org/1999/xlink">
<g id="graph0" class="graph" transform="scale(1 1) rotate(0) translate(4 184)">
<title>echo order demo</title>
<polygon fill="white" stroke="none" points="-4,4 -4,-184 111.89,-184 111.89,4 -4,4"/>
<!-- echo alpha -->
<g id="node1" class="node"><title>echo alpha</title>
<ellipse fill="none" stroke="black" cx="53.9452" cy="-162" rx="48.9926" ry="18"/>
<text text-anchor="middle" x="53.9452" y="-158.3" font-family="Times,serif" font-size="14.00">echo alpha</text>
</g>
<!-- echo beta -->
<g id="node2" class="node"><title>echo beta</title>
<ellipse fill="none" stroke="black" cx="53.9452" cy="-90" rx="44.393" ry="18"/>
<text text-anchor="middle" x="53.9452" y="-86.3" font-family="Times,serif" font-size="14.00">echo beta</text>
</g>
<!-- echo alpha&#45;&gt;echo beta -->
<g id="edge1" class="edge"><title>echo alpha&#45;&gt;echo beta</title>
<path fill="none" stroke="black" d="M53.9452,-143.697C53.9452,-135.983 53.9452,-126.712 53.9452,-118.112"/>
<polygon fill="black" stroke="black" points="57.4453,-118.104 53.9452,-108.104 50.4453,-118.104 57.4453,-118.104"/>
</g>
<!-- echo omega -->
<g id="node3" class="node"><title>echo omega</title>
<ellipse fill="none" stroke="black" cx="53.9452" cy="-18" rx="53.8905" ry="18"/>
<text text-anchor="middle" x="53.9452" y="-14.3" font-family="Times,serif" font-size="14.00">echo omega</text>
</g>
<!-- echo beta&#45;&gt;echo omega -->
<g id="edge2" class="edge"><title>echo beta&#45;&gt;echo omega</title>
<path fill="none" stroke="black" d="M53.9452,-71.6966C53.9452,-63.9827 53.9452,-54.7125 53.9452,-46.1124"/>
<polygon fill="black" stroke="black" points="57.4453,-46.1043 53.9452,-36.1043 50.4453,-46.1044 57.4453,-46.1043"/>
</g>
</g>
</svg>
