<?xml version="1.0" encoding="UTF-8" standalone="no"?>
<!DOCTYPE svg PUBLIC "-//W3C//DTD SVG 1.1//EN"
 "http://www.w3.org/Graphics/SVG/1.1/DTD/svg11.dtd">
<!-- Generated by graphviz version 2.38.0 (20140413.2041)
 -->
<!-- Title: G Pages: 1 -->
<svg width="172pt" height="188pt"
 viewBox="0.00 0.00 171.79 188.00" xmlns="http://www.w3.org/2000/svg" xmlns:xlink="http://www.w3.org/1999/xlink">
<g id="graph0" class="graph" transform="scale(1 1) rotate(0) translate(4 184)">
<title>G</title>
<polygon fill="white" stroke="none" points="-4,4 -4,-184 167.794,-184 167.794,4 -4,4"/>
<!-- Task A -->
<g id="node1" class="node"><title>Task A</title>
<ellipse fill="none" stroke="black" cx="81.3968" cy="-162" rx="36.2938" ry="18"/>
<text text-anchor="middle" x="81.3968" y="-158.3" font-family="Times,serif" font-size="14.00">Task A</text>
</g>
<!-- Task B -->
<g id="node2" class="node"><title>Task B</title>
<ellipse fill="#cd2626" stroke="black" cx="36.3968" cy="-90" rx="36.2938" ry="18"/>
<text text-anchor="middle" x="36.3968" y="-86.3" font-family="Times,serif" font-size="14.00">Task B</text>
</g>
<!-- Task A&#45;&gt;Task B -->
<g id="edge1" class="edge"><title>Task A&#45;&gt;Task B</title>
<path fill="none" stroke="black" d="M70.7324,-144.411C65.2963,-135.955 58.5717,-125.494 52.5185,-116.078"/>
<polygon fill="black" stroke="black" points="55.3363,-113.989 46.9846,-107.47 49.4481,-117.774 55.3363,-113.989"/>
</g>
<!-- Task C -->
<g id="node3" class="node"><title>Task C</title>
<ellipse fill="none" stroke="black" cx="127.397" cy="-90" rx="36.2938" ry="18"/>
<text text-anchor="middle" x="127.397" y="-86.3" font-family="Times,serif" font-size="14.00">Task C</text>
</g>
<!-- Task A&#45;&gt;Task C -->
<g id="edge2" class="edge"><title>Task A&#45;&gt;Task C</title>
<path fill="none" stroke="black" d="M92.0657,-144.765C97.6741,-136.23 104.671,-125.582 110.956,-116.019"/>
<polygon fill="black" stroke="black" points="113.899,-117.913 116.466,-107.633 108.049,-114.068 113.899,-117.913"/>
</g>
<!-- Task E -->
<g id="node5" class="node"><title>Task E</title>
<ellipse fill="#1874cd" stroke="black" cx="36.3968" cy="-18" rx="35.9954" ry="18"/>
<text text-anchor="middle" x="36.3968" y="-14.3" font-family="Times,serif" font-size="14.00">Task E</text>
</g>
<!-- Task B&#45;&gt;Task E -->
<g id="edge4" class="edge"><title>Task B&#45;&gt;Task E</title>
<path fill="none" stroke="black" d="M36.3968,-71.6966C36.3968,-63.9827 36.3968,-54.7125 36.3968,-46.1124"/>
<polygon fill="black" stroke="black" points="39.8969,-46.1043 36.3968,-36.1043 32.8969,-46.1044 39.8969,-46.1043"/>
</g>
<!-- Task D -->
<g id="node4" class="node"><title>Task D</title>
<ellipse fill="none" stroke="black" cx="127.397" cy="-18" rx="36.2938" ry="18"/>
<text text-anchor="middle" x="127.397" y="-14.3" font-family="Times,serif" font-size="14.00">Task D</text>
</g>
<!-- Task C&#45;&gt;Task D -->
<g id="edge3" class="edge"><title>Task C&#45;&gt;Task D</title>
<path fill="none" stroke="black" d="M127.397,-71.6966C127.397,-63.9827 127.397,-54.7125 127.397,-46.1124"/>
<polygon fill="black" stroke="black" points="130.897,-46.1043 127.397,-36.1043 123.897,-46.1044 130.897,-46.1043"/>
</g>
</g>
</svg>
