<?xml version="1.0" encoding="UTF-8" standalone="no"?>
<!DOCTYPE svg PUBLIC "-//W3C//DTD SVG 1.1//EN"
 "http://www.w3.org/Graphics/SVG/1.1/DTD/svg11.dtd">
<!-- Generated by graphviz version 2.38.0 (20140413.2041)
 -->
<!-- Title: G Pages: 1 -->
<svg width="151pt" height="260pt"
 viewBox="0.00 0.00 150.79 260.00" xmlns="http://www.w3.org/2000/svg" xmlns:xlink="http://www.w3.org/1999/xlink">
<g id="graph0" class="graph" transform="scale(1 1) rotate(0) translate(4 256)">
<title>G</title>
<polygon fill="white" stroke="none" points="-4,4 -4,-256 146.794,-256 146.794,4 -4,4"/>
<!-- Task A -->
<g id="node1" class="node"><title>Task A</title>
<ellipse fill="none" stroke="black" cx="106.397" cy="-234" rx="36.2938" ry="18"/>
<text text-anchor="middle" x="106.397" y="-230.3" font-family="Times,serif" font-size="14.00">Task A</text>
</g>
<!-- Task B -->
<g id="node2" class="node"><title>Task B</title>
<ellipse fill="#cd2626" stroke="black" cx="106.397" cy="-162" rx="36.2938" ry="18"/>
<text text-anchor="middle" x="106.397" y="-158.3" font-family="Times,serif" font-size="14.00">Task B</text>
<text text-anchor="middle" x="38" y="-183.8" font-family="Times,serif" font-size="14.00">Failing task</text>
</g>
<!-- Task A&#45;&gt;Task B -->
<g id="edge1" class="edge"><title>Task A&#45;&gt;Task B</title>
<path fill="none" stroke="black" d="M106.397,-215.697C106.397,-207.983 106.397,-198.712 106.397,-190.112"/>
<polygon fill="black" stroke="black" points="109.897,-190.104 106.397,-180.104 102.897,-190.104 109.897,-190.104"/>
</g>
<!-- Task C -->
<g id="node3" class="node"><title>Task C</title>
<ellipse fill="#1874cd" stroke="black" cx="106.397" cy="-90" rx="36.2938" ry="18"/>
<text text-anchor="middle" x="106.397" y="-86.3" font-family="Times,serif" font-size="14.00">Task C</text>
<text text-anchor="middle" x="35" y="-111.8" font-family="Times,serif" font-size="14.00">Skipped task</text>
</g>
<!-- Task B&#45;&gt;Task C -->
<g id="edge2" class="edge"><title>Task B&#45;&gt;Task C</title>
<path fill="none" stroke="black" d="M106.397,-143.697C106.397,-135.983 106.397,-126.712 106.397,-118.112"/>
<polygon fill="black" stroke="black" points="109.897,-118.104 106.397,-108.104 102.897,-118.104 109.897,-118.104"/>
</g>
<!-- Task D -->
<g id="node4" class="node"><title>Task D</title>
<ellipse fill="#1874cd" stroke="black" cx="106.397" cy="-18" rx="36.2938" ry="18"/>
<text text-anchor="middle" x="106.397" y="-14.3" font-family="Times,serif" font-size="14.00">Task D</text>
<text text-anchor="middle" x="35" y="-39.8" font-family="Times,serif" font-size="14.00">Skipped task</text>
</g>
<!-- Task C&#45;&gt;Task D -->
<g id="edge3" class="edge"><title>Task C&#45;&gt;Task D</title>
<path fill="none" stroke="black" d="M106.397,-71.6966C106.397,-63.9827 106.397,-54.7125 106.397,-46.1124"/>
<polygon fill="black" stroke="black" points="109.897,-46.1043 106.397,-36.1043 102.897,-46.1044 109.897,-46.1043"/>
</g>
</g>
</svg>
