<?xml version="1.0" standalone="no"?>
<!DOCTYPE svg PUBLIC "-//W3C//DTD SVG 20010904//EN"
 "http://www.w3.org/TR/2001/REC-SVG-20010904/DTD/svg10.dtd">
<svg version="1.0" xmlns="http://www.w3.org/2000/svg"
 width="16.000000pt" height="16.000000pt" viewBox="0 0 16.000000 16.000000"
 preserveAspectRatio="xMidYMid meet">
<metadata>
Created by potrace 1.11, written by Peter Selinger 2001-2013
</metadata>
<g transform="translate(0.000000,16.000000) scale(0.003125,-0.003125)"
fill="#000000" stroke="none">
<path d="M1450 4749 c-83 -9 -167 -48 -222 -105 -39 -40 -330 -529 -738 -1239
-9 -16 -31 -53 -47 -81 -17 -27 -42 -70 -55 -95 -14 -24 -87 -150 -163 -279
-76 -129 -144 -250 -152 -269 -23 -53 -27 -157 -10 -222 10 -39 142 -275 447
-800 238 -409 488 -838 554 -952 71 -122 139 -227 164 -252 39 -40 113 -83
172 -100 13 -4 535 -8 1160 -7 l1135 0 58 22 c112 42 152 86 269 290 80 139
233 402 628 1080 194 333 363 627 377 655 34 65 43 191 20 262 -9 26 -109 208
-223 403 -113 195 -248 427 -299 515 -51 88 -189 324 -306 525 -116 201 -221
381 -232 400 -74 133 -135 192 -237 231 -55 21 -64 21 -1145 22 -600 1 -1119
-1 -1155 -4z m1296 -74 c-3 -9 -164 -288 -358 -620 l-353 -604 -722 -1 -722 0
40 66 c22 36 43 73 47 82 3 10 10 22 15 27 4 6 130 219 278 475 149 256 280
476 292 489 31 33 94 72 142 87 30 10 198 13 694 13 586 1 653 -1 647 -14z
m1005 -17 c99 -49 82 -26 379 -537 84 -145 153 -269 153 -275 0 -6 -122 -218
-270 -471 -148 -253 -305 -521 -348 -595 -43 -74 -84 -141 -90 -148 -10 -11
-46 45 -180 275 -92 158 -177 304 -187 323 -11 19 -45 77 -75 128 l-54 92
-485 0 c-266 0 -484 4 -484 8 0 4 4 12 9 17 5 6 158 267 341 580 183 314 341
585 352 603 l20 33 432 -3 431 -3 56 -27z m641 -988 c31 -52 110 -189 178
-305 67 -115 133 -229 147 -252 13 -24 74 -129 136 -235 62 -106 119 -208 127
-227 8 -19 13 -65 13 -105 -1 -71 -15 -113 -62 -191 -11 -16 -148 -253 -306
-525 -158 -272 -291 -499 -295 -503 -4 -5 -41 49 -82 120 -41 70 -201 345
-356 610 -155 265 -282 487 -282 493 0 11 75 142 440 765 107 182 211 361 233
398 22 38 43 65 47 60 4 -4 32 -51 62 -103z m-2634 -692 c-131 -226 -238 -418
-238 -428 0 -10 44 -94 98 -187 54 -92 159 -271 232 -398 73 -126 137 -235
142 -241 6 -8 -182 -11 -714 -10 l-722 1 -50 85 c-60 101 -195 333 -303 520
l-78 135 0 95 0 95 79 135 c43 74 87 151 98 170 62 108 242 417 250 426 6 9
204 12 727 12 l718 0 -239 -410z m1445 137 c87 -148 161 -276 164 -284 3 -8
30 -54 59 -102 29 -49 60 -102 69 -118 l15 -30 -470 0 c-293 0 -470 3 -470 9
0 5 -16 34 -35 64 -19 30 -35 58 -35 62 0 4 -6 15 -14 23 -7 9 -27 41 -43 71
-16 30 -48 86 -71 124 -23 37 -42 69 -42 71 0 2 -43 76 -96 166 -53 90 -102
176 -110 190 l-13 26 467 -1 466 -1 159 -270z m-905 -188 l220 -378 -119 -204
c-65 -112 -119 -208 -119 -213 0 -6 -4 -12 -8 -14 -4 -1 -45 -68 -91 -148 -47
-80 -95 -162 -108 -183 l-24 -39 -220 379 c-121 208 -226 388 -234 399 -13 20
3 50 206 400 121 209 227 390 236 403 l16 24 12 -24 c8 -13 112 -194 233 -402z
m1175 -474 c-20 -38 -125 -219 -233 -403 l-196 -335 -466 -1 -467 -1 11 21 c6
11 90 156 186 321 96 165 186 320 200 345 14 25 36 62 49 83 l23 37 466 0 465
0 -38 -67z m120 -10 c13 -21 35 -58 49 -83 14 -25 164 -281 333 -570 169 -289
308 -530 308 -536 1 -21 -414 -723 -446 -754 -17 -17 -56 -43 -87 -58 l-55
-27 -433 0 -434 0 -85 145 c-46 80 -95 163 -108 185 -12 22 -136 233 -274 469
-138 236 -251 431 -251 433 0 1 219 4 486 5 l486 3 99 170 c54 94 103 177 108
185 5 8 38 64 73 124 35 60 75 130 90 155 15 25 45 79 68 119 22 39 43 72 45
72 3 0 15 -17 28 -37z m-1283 -1265 c151 -259 286 -490 300 -513 14 -24 43
-74 64 -112 21 -37 47 -80 58 -95 10 -14 18 -31 18 -37 0 -9 -179 -11 -667 -9
l-668 3 -56 28 c-31 15 -70 42 -87 60 -24 25 -199 316 -333 554 -10 17 -29 50
-43 72 -15 22 -26 42 -26 45 0 2 -18 34 -41 71 -22 37 -49 82 -58 99 -10 17
-52 90 -94 163 -43 72 -77 134 -77 137 0 3 323 6 718 6 l717 -1 275 -471z"/>
</g>
</svg>
